<svg xmlns="http://www.w3.org/2000/svg" xmlns:xlink="http://www.w3.org/1999/xlink" width="64" height="64"><defs><linearGradient id="b" x1="50%" x2="64.003%" y1="39.078%" y2="94.069%"><stop offset="0%" stop-color="#07C3F2"/><stop offset="100%" stop-color="#087CFA"/></linearGradient><linearGradient id="d" x1="52.808%" x2="61.826%" y1="6.804%" y2="27.345%"><stop offset="0%" stop-color="#FCF84A"/><stop offset="100%" stop-color="#07C3F2"/></linearGradient><linearGradient id="f" x1="41.01%" x2="53.927%" y1="27.049%" y2="91.488%"><stop offset="0%" stop-color="#07C3F2"/><stop offset="100%" stop-color="#087CFA"/></linearGradient><linearGradient id="h" x1="50%" x2="50%" y1="-11.618%" y2="60.589%"><stop offset="0%" stop-color="#A6A5A5"/><stop offset="0%" stop-color="#989898" stop-opacity=".568"/><stop offset="100%"/></linearGradient><path id="a" d="M0 6.7l8.6 51.1L44 64 54.9 8.6 35.5 1.1l-9.4 5.001L16 .1z"/><path id="c" d="M40.8 0L17.601 22.2 23.8 50.9 35.5 59 64 42.1 57 29l7-7.3-8.3-20.4z"/><path id="e" d="M51.2 18.599L57 29l7-7.3-5.101-12.699z"/><path id="g" d="M0 40h40V0H0z"/></defs><g fill="none" fill-rule="evenodd"><use fill="#07C3F2" xlink:href="#a"/><use fill="url(#b)" xlink:href="#a"/><use fill="#07C3F2" xlink:href="#c"/><use fill="url(#d)" xlink:href="#c"/><use fill="#07C3F2" xlink:href="#e"/><use fill="url(#f)" xlink:href="#e"/><g transform="translate(12 12)"><use fill="#000" xlink:href="#g"/><use fill="url(#h)" xlink:href="#g"/><path fill="#FFF" d="M23.428 19.525l2.203-2.637c1.524 1.257 3.123 2.056 5.056 2.056 1.527 0 2.446-.605 2.446-1.599v-.048c0-.942-.581-1.427-3.413-2.15-3.412-.872-5.616-1.819-5.616-5.18v-.05c0-3.072 2.47-5.108 5.93-5.108 2.47 0 4.575.776 6.292 2.155L34.39 9.772c-1.5-1.042-2.976-1.67-4.403-1.67-1.428 0-2.18.652-2.18 1.476v.048c0 1.113.728 1.48 3.655 2.226 3.437.896 5.373 2.132 5.373 5.084v.047c0 3.365-2.565 5.25-6.22 5.25-2.565 0-5.155-.895-7.187-2.708M20.265 5l-2.467 9.679L14.971 5h-2.81l-2.827 9.679L6.867 5H3l4.738 17h3.113l2.715-9.602L16.247 22h3.151l4.733-17zM4 35h15v-2.5H4z"/></g></g></svg>